<?xml version="1.0" encoding="UTF-8"?>
<svg width="700pt" height="700pt" version="1.1" viewBox="0 0 700 700" xmlns="http://www.w3.org/2000/svg">
 <path d="m377.79 67.438c-113.03-17.027-218.46 60.797-235.49 173.83-7.8203 51.91 4.3555 102.19 30.77 143.08 1.8828 2.9102 2.3711 6.5117 1.332 9.8203l-19.312 61.535 54.406-21.09c3.8047-1.4766 8.1016-0.85547 11.336 1.6328 26.906 20.715 59.301 35.09 95.297 40.512 113.03 17.027 218.46-60.797 235.49-173.83 17.027-113.03-60.797-218.46-173.83-235.49zm-258.56 170.35c18.949-125.77 136.27-212.37 262.04-193.42 125.77 18.945 212.37 136.27 193.42 262.04-18.945 125.77-136.26 212.37-262.04 193.42-37.672-5.6719-71.859-20.188-100.74-41.125l-70.992 27.52c-4.1797 1.6172-8.9219 0.70312-12.191-2.3633-3.2734-3.0625-4.5-7.7305-3.1562-12.008l24.957-79.527c-27.332-44.605-39.699-98.75-31.297-154.53z" fill-rule="evenodd"/>
</svg>
